<?xml version="1.0" standalone="no"?>
<!DOCTYPE svg PUBLIC "-//W3C//DTD SVG 20010904//EN"
 "http://www.w3.org/TR/2001/REC-SVG-20010904/DTD/svg10.dtd">
<svg version="1.0" xmlns="http://www.w3.org/2000/svg"
 width="40" height="40" viewBox="0 0 469.333 469.333"
 preserveAspectRatio="xMidYMid meet">

<g transform="translate(0.000000,296.000000) scale(0.100000,-0.100000)"
fill="#000000" stroke="none">
<path d="M1906 2949 c-28 -17 -103 -183 -127 -285 -15 -62 -22 -123 -23 -199
l-1 -110 -69 -2 c-182 -6 -356 -111 -430 -260 -1 -1 -32 7 -69 17 -129 36
-276 54 -437 54 -437 0 -723 -144 -747 -377 -19 -189 139 -409 384 -533 54
-28 73 -42 69 -54 -46 -136 -57 -191 -57 -285 0 -171 48 -307 159 -447 l46
-59 -31 -172 c-17 -95 -30 -173 -28 -175 2 -2 74 32 161 76 l159 79 54 -24
c231 -102 485 -77 696 71 l63 44 41 -48 c22 -27 77 -75 121 -109 143 -108 279
-157 407 -148 89 7 149 33 205 89 90 89 123 208 115 408 -11 251 -96 525 -234
752 l-41 66 28 27 c36 35 89 133 106 199 26 96 18 187 -31 361 -5 18 5 23 84
48 104 33 208 92 303 171 102 85 120 140 61 186 -41 32 -64 25 -154 -50 -95
-80 -229 -151 -328 -174 l-65 -15 -69 65 c-77 73 -151 124 -236 161 -31 14
-59 30 -63 36 -13 20 -8 209 7 280 8 38 31 105 51 150 49 111 53 139 20 171
-27 28 -67 33 -100 15z m-851 -979 c275 -55 405 -129 405 -228 0 -32 -2 -34
-27 -28 -225 49 -484 71 -669 57 -71 -6 -143 -13 -160 -17 -26 -5 -39 1 -85
38 -46 37 -119 135 -119 159 0 7 105 33 175 43 76 11 383 -4 480 -24z m-703
-98 c15 -26 45 -68 67 -94 l40 -45 -92 -33 c-50 -18 -109 -41 -130 -52 l-38
-19 -16 38 c-24 58 -21 125 7 166 24 35 93 85 120 86 8 1 27 -21 42 -47z m439
-207 c-57 -65 -100 -173 -116 -287 -3 -27 -8 -48 -10 -48 -2 0 -29 7 -60 15
-113 29 -241 103 -319 183 -45 47 -49 43 84 90 123 43 254 67 434 81 15 1 13
-5 -13 -34z m379 14 c85 -10 242 -38 249 -45 10 -10 -88 -120 -142 -161 -134
-98 -276 -151 -431 -160 l-99 -6 6 59 c14 132 61 225 147 293 58 46 50 45 270
20z m847 -289 c106 -82 256 -343 326 -567 39 -122 79 -373 60 -373 -23 0 -113
30 -148 48 -83 43 -94 59 -110 157 -34 199 -110 421 -217 632 -56 112 -57 114
-35 123 33 14 93 5 124 -20z m-525 -56 c35 -25 64 -47 66 -49 2 -2 -10 -43
-26 -92 -28 -84 -49 -191 -55 -278 l-2 -40 -63 2 c-122 3 -254 91 -311 205
-43 85 -41 102 12 117 62 19 204 95 262 140 28 22 51 40 52 40 2 1 31 -20 65
-45z m391 -131 c36 -76 78 -174 93 -219 l28 -80 -31 -65 c-40 -82 -121 -160
-208 -200 -35 -16 -67 -29 -69 -29 -13 0 -48 145 -53 220 -10 160 43 359 123
465 19 25 39 45 43 45 4 0 37 -62 74 -137z m-1168 -130 c86 -336 388 -568 734
-562 104 2 104 1 118 -26 8 -14 12 -32 10 -39 -3 -7 -33 -32 -66 -54 -192
-128 -402 -128 -619 -1 -86 51 -220 190 -264 274 -80 154 -89 308 -26 456 19
45 20 46 56 40 36 -6 37 -7 57 -88z m1351 -408 c14 -66 18 -138 19 -272 0
-100 -3 -184 -7 -188 -4 -4 -34 8 -67 25 -73 39 -202 170 -248 252 l-31 57 66
31 c86 40 158 97 202 158 21 30 38 45 42 38 3 -6 15 -52 24 -101z m147 -235
c19 -11 66 -28 105 -38 40 -10 74 -21 77 -24 3 -3 0 -29 -6 -58 -21 -100 -110
-162 -206 -144 -31 6 -34 9 -29 33 3 14 9 77 12 139 4 61 8 112 10 112 2 0 18
-9 37 -20z"/>
<path d="M4340 1566 l0 -434 -47 -63 c-67 -92 -166 -192 -258 -262 -332 -250
-695 -234 -825 38 -41 85 -39 91 18 100 194 29 435 155 583 304 203 206 194
424 -22 538 -50 26 -62 28 -169 28 -102 0 -122 -3 -178 -26 -182 -77 -331
-220 -425 -406 -109 -215 -94 -504 37 -702 122 -182 308 -271 545 -258 166 9
333 67 482 168 65 44 184 156 232 219 l26 35 1 -227 0 -228 393 0 c215 0 433
5 484 10 287 30 443 183 443 433 0 138 -35 223 -124 305 -45 42 -99 71 -161
86 l-30 8 52 25 c153 73 230 227 202 403 -20 128 -98 233 -213 286 -106 48
-173 54 -627 54 l-419 0 0 -434z m800 96 c107 -53 107 -206 0 -259 -41 -22
-57 -23 -237 -23 l-193 0 0 150 0 150 198 0 c168 0 202 -3 232 -18z m-1410
-47 c87 -45 78 -135 -25 -252 -58 -66 -197 -159 -300 -202 -77 -32 -229 -70
-239 -60 -3 3 1 35 9 72 34 163 176 347 324 420 62 31 84 37 138 37 37 0 76
-6 93 -15z m1440 -567 c64 -33 90 -76 90 -152 0 -77 -29 -131 -85 -160 -36
-19 -60 -21 -247 -24 l-208 -4 0 181 0 181 203 0 c190 0 205 -1 247 -22z"/>
<path d="M5872 1198 l3 -803 190 0 190 0 3 268 2 267 169 0 c274 0 392 24 513
106 140 95 208 239 209 440 1 228 -83 374 -263 459 -122 57 -197 65 -634 65
l-384 0 2 -802z m793 446 c107 -56 125 -249 30 -332 -50 -44 -90 -52 -272 -52
l-163 0 0 206 0 205 183 -3 c161 -3 187 -5 222 -24z"/>
<path d="M7345 1988 c-3 -7 -4 -368 -3 -803 l3 -790 190 0 190 0 3 307 2 308
333 2 332 3 3 163 2 162 -335 0 -335 0 0 160 0 160 380 0 380 0 0 170 0 170
-570 0 c-447 0 -572 -3 -575 -12z"/>
</g>
</svg>
